<?xml version="1.0" standalone="no"?>
<!DOCTYPE svg PUBLIC "-//W3C//DTD SVG 20010904//EN"
 "http://www.w3.org/TR/2001/REC-SVG-20010904/DTD/svg10.dtd">
<svg version="1.0" xmlns="http://www.w3.org/2000/svg"
 width="810.000000pt" height="210.000000pt" viewBox="0 0 810.000000 210.000000"
 preserveAspectRatio="xMidYMid meet">

<g transform="translate(0.000000,210.000000) scale(0.100000,-0.100000)"
fill="#006baf" stroke="none">
<path d="M688 1762 l-395 -226 -6 -240 c-4 -131 -7 -339 -7 -460 l0 -222 398
-232 399 -232 396 227 397 227 0 336 c0 184 3 391 6 460 l6 125 -268 155
c-148 85 -328 189 -400 231 l-131 76 -395 -225z m775 -51 c202 -117 366 -215
365 -216 -2 -1 -171 -97 -375 -214 l-373 -213 0 -429 c0 -236 -3 -429 -6 -429
-5 0 -485 279 -707 410 l-37 22 2 432 3 431 370 212 c204 117 375 212 381 210
5 -1 175 -98 377 -216z"/>
<path d="M2856 1517 c-15 -11 -17 -34 -18 -200 -1 -103 -4 -187 -7 -187 -3 0
-16 15 -28 34 -47 73 -189 104 -295 63 -53 -20 -122 -89 -145 -144 -26 -63
-35 -149 -23 -229 21 -152 101 -244 230 -265 95 -15 208 26 240 86 19 36 26
31 27 -20 2 -58 7 -65 48 -65 24 0 38 6 45 19 6 13 10 174 10 455 l0 435 -22
15 c-27 19 -39 20 -62 3z m-104 -389 c119 -91 108 -364 -17 -435 -47 -26 -127
-31 -179 -9 -41 17 -90 75 -105 125 -16 54 -14 171 4 222 32 91 95 131 196
126 54 -2 73 -8 101 -29z"/>
<path d="M4987 1507 c-89 -28 -146 -107 -155 -214 l-5 -63 -56 0 c-75 0 -102
-27 -65 -64 10 -11 34 -16 70 -16 l54 0 0 -268 c0 -286 1 -292 50 -292 49 0
50 6 50 292 l0 268 83 0 c45 0 88 4 95 9 8 5 12 21 10 37 l-3 29 -94 3 -94 3
6 61 c3 37 13 71 24 87 25 34 79 61 124 61 46 0 72 19 67 51 -3 22 -8 24 -63
26 -33 1 -77 -3 -98 -10z"/>
<path d="M3463 1240 c-78 -17 -148 -73 -187 -150 -31 -61 -37 -90 -37 -178 0
-202 113 -324 301 -324 97 0 163 27 218 86 58 63 77 122 77 241 0 119 -19 178
-77 241 -66 71 -189 107 -295 84z m193 -115 c66 -50 98 -174 75 -287 -21 -101
-76 -158 -160 -166 -101 -9 -161 20 -204 102 -18 34 -22 57 -22 141 0 84 4
107 22 141 46 86 115 119 212 102 24 -4 59 -19 77 -33z"/>
<path d="M5534 1241 c-55 -9 -138 -43 -166 -68 -21 -19 -23 -56 -4 -72 10 -9
29 -4 81 21 77 36 203 51 244 29 38 -21 61 -70 61 -133 l0 -58 -77 0 c-108 0
-205 -16 -259 -42 -61 -28 -89 -86 -80 -161 20 -171 280 -234 390 -95 l26 33
0 -27 c0 -50 17 -78 48 -78 51 0 52 7 52 250 0 180 -3 236 -16 273 -16 47 -66
101 -109 117 -36 14 -135 19 -191 11z m216 -388 c-1 -119 -99 -209 -206 -189
-73 14 -124 89 -104 152 19 56 88 80 238 83 l72 1 0 -47z"/>
<path d="M6660 1243 c-38 -13 -40 -29 -40 -326 0 -179 4 -296 10 -308 12 -21
74 -27 86 -7 4 6 6 90 5 187 -1 195 5 234 44 291 29 42 75 64 157 75 52 7 71
23 66 57 -3 20 -9 23 -56 26 -68 4 -149 -31 -183 -79 l-24 -34 -5 49 c-5 51
-30 79 -60 69z"/>
<path d="M7683 1240 c-21 -8 -21 -14 -25 -222 -3 -231 -6 -245 -65 -300 -36
-34 -73 -48 -129 -48 -57 0 -99 22 -121 63 -15 27 -18 65 -21 257 -2 138 -7
230 -14 237 -14 17 -63 16 -77 -1 -9 -11 -11 -79 -9 -253 3 -221 5 -241 25
-278 43 -81 91 -107 199 -107 83 0 134 21 182 77 l32 36 0 -44 c0 -49 13 -67
50 -67 50 0 50 3 50 326 0 302 0 303 -22 318 -25 18 -25 18 -55 6z"/>
<path d="M4152 1228 c-16 -16 -17 -590 -2 -619 8 -13 21 -19 45 -19 44 0 44
-2 47 235 3 182 4 192 28 234 31 55 69 78 151 93 76 13 91 23 87 57 -3 24 -7
26 -55 29 -72 4 -146 -29 -184 -81 l-29 -40 0 49 c0 28 -5 55 -12 62 -15 15
-61 15 -76 0z"/>
<path d="M6192 714 c-28 -20 -31 -83 -4 -107 39 -36 111 -13 113 36 2 39 -2
52 -23 70 -25 21 -57 22 -86 1z"/>
</g>
</svg>
