<?xml version="1.0" encoding="utf-8"?>
<!-- Generator: Adobe Illustrator 22.0.1, SVG Export Plug-In . SVG Version: 6.00 Build 0)  -->
<svg version="1.1" id="Layer_1" xmlns="http://www.w3.org/2000/svg" xmlns:xlink="http://www.w3.org/1999/xlink" x="0px" y="0px"
	 viewBox="0 0 828 224" style="enable-background:new 0 0 828 224;" xml:space="preserve">
<style type="text/css">
	.st0{fill:#2B579A;}
</style>
<g transform="translate(0.000000,224.000000) scale(0.100000,-0.100000)">
	<path class="st0" d="M680,1878.5l-430-247l-6-164c-3-91-7-318-8-505l-1-340l435-254l435-253l435,248l435,248l2,383
		c2,211,3,437,3,504v121l-385,225c-212,123-407,237-435,252l-50,28L680,1878.5z M1563,1802.5c199-115,361-212,361-215
		s-182-108-404-235l-405-230l-1-185c-1-102-5-314-8-472l-6-287l-395,230c-217,127-400,236-406,242c-7,8-8,157-5,481l6,469l405,232
		l405,232l46-26C1182,2024.5,1365,1918.5,1563,1802.5z"/>
	<path class="st0" d="M2891,1611.5c-14-13-16-47-16-211v-196l-40,45c-50,57-104,80-191,80c-126,0-223-68-269-188
		c-32-82-33-224-2-307c44-121,130-188,250-195c92-6,148,13,204,70l48,47v-44c0-49,19-75,54-75c13,0,30,8,39,18c15,17,17,64,17,475
		c0,444-1,458-20,477C2941,1631.5,2912,1633.5,2891,1611.5z M2787,1205.5c60-46,83-107,83-218c0-178-64-260-205-260
		c-67,0-101,14-142,57c-45,47-61,98-62,198c-1,80,3,97,27,147c41,84,87,110,188,106C2740,1232.5,2757,1228.5,2787,1205.5z"/>
	<path class="st0" d="M5145,1608.5c-106-33-166-109-177-226l-6-65h-56c-62,0-81-11-81-47c0-30,28-43,89-43h51v-279
		c0-241,2-282,16-295c21-21,57-20,77,2c15,16,17,52,17,295v277h81c92,0,119,10,119,45s-27,45-119,45h-81v51c0,101,48,153,152,165
		c63,7,81,21,76,56c-3,21-8,23-68,25C5199,1615.5,5159,1612.5,5145,1608.5z"/>
	<path class="st0" d="M3558,1326.5c-149-20-247-135-260-304c-14-185,72-335,215-375c55-15,162-12,215,6c60,20,139,91,166,149
		c69,147,42,346-62,447C3769,1310.5,3663,1340.5,3558,1326.5z M3722,1211.5c65-38,95-107,96-227c0-84-3-101-27-151
		c-37-75-87-106-175-106c-105,0-167,45-196,143c-30,103-13,233,40,302c31,41,52,54,108,64C3626,1247.5,3672,1239.5,3722,1211.5z"/>
	<path class="st0" d="M5729,1327.5c-97-14-196-56-215-91c-8-16-8-28,0-45c13-29,25-30,72-5c96,51,226,68,287,37c36-18,62-78,62-140
		v-44l-97-6c-126-8-236-30-278-56c-70-43-88-160-36-242c78-122,287-134,379-22l32,39v-42c0-24,6-48,16-57c23-24,61-20,80,9
		c14,21,16,55,13,258l-4,233l-30,60c-26,51-37,62-85,86C5863,1329.5,5803,1337.5,5729,1327.5z M5935,930.5c0-121-86-213-198-213
		c-36,0-87,25-110,55c-24,30-30,92-12,126c23,41,108,63,273,68l47,1V930.5z"/>
	<path class="st0" d="M4257,1315.5c-9-9-12-97-12-335c0-308,1-323,19-333c11-5,28-10,39-10c42,0,47,22,52,250c5,216,5,217,33,258
		c33,50,82,77,160,86c78,10,104,38,74,80c-32,44-196-4-241-70l-23-35l-5,46c-3,25-11,52-18,60C4320,1330.5,4274,1332.5,4257,1315.5z
		"/>
	<path class="st0" d="M6861,1311.5c-14-13-16-57-16-329c0-340,1-345,55-345c51,0,55,15,55,229c0,123,4,211,12,232
		c27,82,81,120,188,134c63,8,80,19,80,49c0,48-53,59-146,31c-51-16-87-42-117-85l-17-24v40C6955,1314.5,6902,1352.5,6861,1311.5z"/>
	<path class="st0" d="M7487,1315.5c-19-19-17-483,3-539c33-92,107-139,220-139c84,0,134,21,188,76l37,38v-46c0-52,16-71,57-66
		c50,6,53,26,53,343c0,321-3,338-56,343c-17,2-36-3-41-10c-7-8-13-96-15-228c-4-225-8-248-57-304c-48-55-166-74-228-36
		c-59,36-63,54-63,307c0,191-3,232-16,251C7552,1329.5,7507,1335.5,7487,1315.5z"/>
	<path class="st0" d="M6386,761.5c-28-35-26-69,4-99c33-34,77-33,104,1c12,15,21,37,21,49c0,38-37,75-75,75
		C6416,787.5,6401,780.5,6386,761.5z"/>
</g>
</svg>
